<svg viewBox="0 0 1010 661" xmlns="http://www.w3.org/2000/svg" xmlns:xlink="http://www.w3.org/1999/xlink"><defs><linearGradient x1="50%" y1="0%" x2="50%" y2="100%" id="frameLaptop3DOpena"><stop stop-color="#F1F2F4" offset="0%"></stop><stop stop-color="#FCFCFC" offset="90.636%"></stop><stop stop-color="#DEDEDF" offset="100%"></stop></linearGradient><path d="M152 0h706c8.284 0 15 6.716 15 15v465c0 8.284-6.716 15-15 15H152c-8.284 0-15-6.716-15-15V15c0-8.284 6.716-15 15-15z" id="frameLaptop3DOpenb"></path><filter x="-.7%" y="-1%" width="101.4%" height="102%" filterUnits="objectBoundingBox" id="frameLaptop3DOpenc"><feGaussianBlur stdDeviation="5" in="SourceAlpha" result="shadowBlurInner1"></feGaussianBlur><feOffset in="shadowBlurInner1" result="shadowOffsetInner1"></feOffset><feComposite in="shadowOffsetInner1" in2="SourceAlpha" operator="arithmetic" k2="-1" k3="1" result="shadowInnerInner1"></feComposite><feColorMatrix values="0 0 0 0 0.790646588 0 0 0 0 0.790646588 0 0 0 0 0.799790534 0 0 0 1 0" in="shadowInnerInner1"></feColorMatrix></filter><linearGradient x1="0%" y1="50%" x2="100%" y2="50%" id="frameLaptop3DOpend"><stop stop-color="#D6D6D8" offset="0%"></stop><stop stop-color="#DFE1E6" offset="1.59%"></stop><stop stop-color="#DFE1E6" offset="97.546%"></stop><stop stop-color="#D6D6D8" offset="100%"></stop></linearGradient><linearGradient x1="50%" y1=".296%" x2="50%" y2="70.873%" id="frameLaptop3DOpene"><stop stop-color="#F4F3F3" offset="0%"></stop><stop stop-color="#FFF" offset="100%"></stop></linearGradient><path d="M136.709 494.593C132.524 499.459 9.38 630.606 3.382 637.08c-5.997 6.475-4.318 11.659 7.446 11.659h989.593c8.826-1.042 11.032-4.51 6.62-10.403-10.912-11.393-130.622-140.08-135.513-145.005-1.769-2.182-6.614-3.272-14.537-3.272H151.45c-6.57-.163-11.483 1.348-14.74 4.534z" id="frameLaptop3DOpenf"></path><filter x="-.6%" y="-3.8%" width="101.2%" height="107.6%" filterUnits="objectBoundingBox" id="frameLaptop3DOpeng"><feGaussianBlur stdDeviation="3" in="SourceAlpha" result="shadowBlurInner1"></feGaussianBlur><feOffset in="shadowBlurInner1" result="shadowOffsetInner1"></feOffset><feComposite in="shadowOffsetInner1" in2="SourceAlpha" operator="arithmetic" k2="-1" k3="1" result="shadowInnerInner1"></feComposite><feColorMatrix values="0 0 0 0 0.874509804 0 0 0 0 0.882352941 0 0 0 0 0.901960784 0 0 0 1 0" in="shadowInnerInner1" result="shadowMatrixInner1"></feColorMatrix><feGaussianBlur stdDeviation="3.5" in="SourceAlpha" result="shadowBlurInner2"></feGaussianBlur><feOffset dy="5" in="shadowBlurInner2" result="shadowOffsetInner2"></feOffset><feComposite in="shadowOffsetInner2" in2="SourceAlpha" operator="arithmetic" k2="-1" k3="1" result="shadowInnerInner2"></feComposite><feColorMatrix values="0 0 0 0 0.875028306 0 0 0 0 0.875028306 0 0 0 0 0.875028306 0 0 0 0.5 0" in="shadowInnerInner2" result="shadowMatrixInner2"></feColorMatrix><feMerge><feMergeNode in="shadowMatrixInner1"></feMergeNode><feMergeNode in="shadowMatrixInner2"></feMergeNode></feMerge></filter><linearGradient x1="50%" y1="0%" x2="50%" y2="99.739%" id="frameLaptop3DOpenh"><stop stop-color="#ACB0B8" offset="0%"></stop><stop stop-color="#CACCD3" offset="100%"></stop></linearGradient><path d="M302.339 638h405.9a2 2 0 0 0 1.826-2.815l-28.224-63.223a5 5 0 0 0-4.566-2.962H331.822a5 5 0 0 0-4.605 3.052l-26.72 63.169a2 2 0 0 0 1.842 2.779z" id="frameLaptop3DOpeni"></path><filter x=".1%" y="-.7%" width="99.7%" height="101.4%" filterUnits="objectBoundingBox" id="frameLaptop3DOpenj"><feOffset dy="1" in="SourceAlpha" result="shadowOffsetInner1"></feOffset><feComposite in="shadowOffsetInner1" in2="SourceAlpha" operator="arithmetic" k2="-1" k3="1" result="shadowInnerInner1"></feComposite><feColorMatrix values="0 0 0 0 0.763105752 0 0 0 0 0.763105752 0 0 0 0 0.763105752 0 0 0 0.5 0" in="shadowInnerInner1"></feColorMatrix></filter><linearGradient x1="50%" y1="48.921%" x2="50%" y2="0%" id="frameLaptop3DOpenk"><stop stop-opacity="0" offset="0%"></stop><stop stop-opacity=".187" offset="100%"></stop></linearGradient></defs><g fill="none" fill-rule="evenodd"><g><use fill="url(#frameLaptop3DOpena)" xlink:href="#frameLaptop3DOpenb"></use><use fill="#000" filter="url(#frameLaptop3DOpenc)" xlink:href="#frameLaptop3DOpenb"></use></g><path fill="transparent" d="M155 31h705v440H155z"></path><path d="M0 639.755c.017 9.541.026 14.955.026 16.242 0 2.057 3.757 4.742 10.802 4.742h989.593c7.53 0 8.815-2.818 8.826-5.795.003-1.006.007-6.069.01-15.189H0z" fill="url(#frameLaptop3DOpend)"></path><g><use fill="url(#frameLaptop3DOpene)" xlink:href="#frameLaptop3DOpenf"></use><use fill="#000" filter="url(#frameLaptop3DOpeng)" xlink:href="#frameLaptop3DOpenf"></use></g><path d="M170.105 555.873l38.887-54.25a3 3 0 0 1 2.438-1.252h586.493a3 3 0 0 1 2.41 1.212l40.25 54.25a3 3 0 0 1-2.41 4.787h-665.63a3 3 0 0 1-2.438-4.747z" fill="url(#frameLaptop3DOpenh)" opacity=".492"></path><g><use fill="#DFE1E6" xlink:href="#frameLaptop3DOpeni"></use><use fill="#000" filter="url(#frameLaptop3DOpenj)" xlink:href="#frameLaptop3DOpeni"></use></g><path d="M98.795 568.32c19.863-21.529 31.066-33.61 33.61-36.245 6.872-7.887 9.298-8.674 19.252-9.075h702.68c15.406 0 16.184 2.404 18.498 4.868 12.997 13.837 25.95 27.69 38.863 41.559a3 3 0 0 1-2.2 5.044l-808.502-1.117a3 3 0 0 1-2.2-5.035z" fill="url(#frameLaptop3DOpenk)" opacity=".471" transform="translate(0 -33)"></path></g></svg>